<?xml version="1.0" encoding="utf-8"?>
<svg version="1.1" xmlns:xlink="http://www.w3.org/1999/xlink" width="395px" height="114px" xmlns="http://www.w3.org/2000/svg">
  <defs>
    <linearGradient gradientUnits="userSpaceOnUse" x1="187.5" y1="12.566672" x2="187.5" y2="65.0198" id="LinearGradient219">
      <stop id="Stop220" stop-color="#02a7f0" stop-opacity="0.08235294117647059" offset="0" />
      <stop id="Stop221" stop-color="#02a7f0" stop-opacity="0.996078431372549" offset="1" />
    </linearGradient>
    <pattern id="BGPattern" patternUnits="userSpaceOnUse" alignment="0 0" imageRepeat="None" />
    <mask fill="white" id="Clip222">
      <path d="M 0 89  L 0 5  C 0 2.1999999999999997  2.2 0  5 0  L 370 0  C 372.8 0  375 2.1999999999999997  375 5  L 375 89  C 375 91.8  372.8 94  370 94  L 5 94  C 2.2 94  0 91.8  0 89  Z " fill-rule="evenodd" />
    </mask>
  </defs>
  <g transform="matrix(1 0 0 1 -758 -458 )">
    <path d="M 0 89  L 0 5  C 0 2.1999999999999997  2.2 0  5 0  L 370 0  C 372.8 0  375 2.1999999999999997  375 5  L 375 89  C 375 91.8  372.8 94  370 94  L 5 94  C 2.2 94  0 91.8  0 89  Z " fill-rule="nonzero" fill="url(#LinearGradient219)" stroke="none" transform="matrix(1 0 0 1 763 463 )" class="fill" />
    <path d="M 0 89  L 0 5  C 0 2.1999999999999997  2.2 0  5 0  L 370 0  C 372.8 0  375 2.1999999999999997  375 5  L 375 89  C 375 91.8  372.8 94  370 94  L 5 94  C 2.2 94  0 91.8  0 89  Z " stroke-width="2" stroke-dasharray="0" stroke="rgba(121, 121, 121, 1)" fill="none" transform="matrix(1 0 0 1 763 463 )" class="stroke" mask="url(#Clip222)" />
  </g>
  <style>svg { filter: drop-shadow(5px 5px 5px rgba(0, 0, 0, 0.34901960784313724)); }</style>
</svg>