<?xml version="1.0" encoding="utf-8"?>
<svg version="1.1" xmlns:xlink="http://www.w3.org/1999/xlink" width="185px" height="82px" xmlns="http://www.w3.org/2000/svg">
  <defs>
    <linearGradient gradientUnits="userSpaceOnUse" x1="50.306390977442014" y1="61.37999999999682" x2="64.20112781954697" y2="-13.542105263159542" id="LinearGradient210">
      <stop id="Stop211" stop-color="#80ffff" offset="0" />
      <stop id="Stop212" stop-color="#4c9192" offset="0.55" />
      <stop id="Stop213" stop-color="#0000ff" offset="1" />
    </linearGradient>
    <pattern id="BGPattern" patternUnits="userSpaceOnUse" alignment="0 0" imageRepeat="None" />
    <mask fill="white" id="Clip214">
      <path d="M 0 57  L 0 5  C 0 2.1999999999999997  2.1999999999999997 0  5 0  L 160 0  C 162.8 0  165 2.1999999999999997  165 5  L 165 57  C 165 59.8  162.8 62  160 62  L 5 62  C 2.1999999999999997 62  0 59.8  0 57  Z " fill-rule="evenodd" />
    </mask>
  </defs>
  <g transform="matrix(1 0 0 1 -862 -581 )">
    <path d="M 0 57  L 0 5  C 0 2.1999999999999997  2.1999999999999997 0  5 0  L 160 0  C 162.8 0  165 2.1999999999999997  165 5  L 165 57  C 165 59.8  162.8 62  160 62  L 5 62  C 2.1999999999999997 62  0 59.8  0 57  Z " fill-rule="nonzero" fill="url(#LinearGradient210)" stroke="none" transform="matrix(1 0 0 1 867 586 )" class="fill" />
    <path d="M 0 57  L 0 5  C 0 2.1999999999999997  2.1999999999999997 0  5 0  L 160 0  C 162.8 0  165 2.1999999999999997  165 5  L 165 57  C 165 59.8  162.8 62  160 62  L 5 62  C 2.1999999999999997 62  0 59.8  0 57  Z " stroke-width="2" stroke-dasharray="0" stroke="rgba(121, 121, 121, 1)" fill="none" transform="matrix(1 0 0 1 867 586 )" class="stroke" mask="url(#Clip214)" />
  </g>
  <style>svg { filter: drop-shadow(5px 5px 5px rgba(0, 0, 0, 0.34901960784313724)); }</style>
</svg>